<svg xmlns="http://www.w3.org/2000/svg" width="143.144" height="30.005" viewBox="0 0 143.144 30.005">
  <g id="RC_Geeks_Logo" data-name="RC Geeks Logo" transform="translate(-0.854)">
    <path id="Path_169" data-name="Path 169" d="M40.381,31.847a12.333,12.333,0,0,0,4.662-3.015l-.021-.021A11.907,11.907,0,0,1,40.381,31.847ZM29.2,31.077a2.221,2.221,0,0,1-1.091.941,2.318,2.318,0,0,0,1.155-.962,2.369,2.369,0,0,0,.278-.77c-.021-.021-.043-.021-.043-.043a2.3,2.3,0,0,1-.3.834Zm-19.846.3a2.371,2.371,0,0,1-.535-1.9L11.4,13.048a2.364,2.364,0,0,1,2.331-1.989A2.366,2.366,0,0,0,11.4,13.006L8.794,29.451a2.349,2.349,0,0,0,.535,1.9,2.156,2.156,0,0,0,.406.364,1.476,1.476,0,0,1-.385-.342Zm9.474-.47-.043-.064.021.043A2.25,2.25,0,0,0,19.957,32a2.43,2.43,0,0,1-1.133-1.091Zm39.543,3.122a2.373,2.373,0,0,1-1.112.9,2.377,2.377,0,0,0,1.176-.92A28.6,28.6,0,0,0,62.58,23.613a1.515,1.515,0,0,0-.021-.3,28.513,28.513,0,0,1-4.192,10.714ZM78.535,31.5a11.505,11.505,0,0,0,1.176-.513C79.326,31.162,78.941,31.333,78.535,31.5Zm45.553-19.7a2.359,2.359,0,0,1,.749-.556,2.287,2.287,0,0,0-.791.577l-.684.749V12.6ZM119.3,32.082a2.345,2.345,0,0,0,1.518-1.583l-.043-.086a2.29,2.29,0,0,1-1.476,1.668ZM83.539,11.23a2.407,2.407,0,0,0-1.369,1.411l.021.021A2.412,2.412,0,0,1,83.539,11.23Zm62.149,8.234,2.267-2.545a2.219,2.219,0,0,0,.577-1.476,2.349,2.349,0,0,1-.577,1.454ZM67.136,13.647a13.735,13.735,0,0,1,2.331-1.54,11.676,11.676,0,0,0-2.374,1.561,12.469,12.469,0,0,0-4.234,6.822v.192a12.232,12.232,0,0,1,4.277-7.036Zm-16.1-1.668a2.578,2.578,0,0,1,.984-.257,2.525,2.525,0,0,1,.813-.684L57.49,8.707a1.308,1.308,0,0,1,.257-.107c-.107.043-.192.064-.3.107l-4.662,2.331a2.525,2.525,0,0,0-.813.684,2.321,2.321,0,0,0-.984.257L46.669,14.2l.021.021,4.341-2.246ZM38.948,10.7h-.021a12.572,12.572,0,0,0-9.111,3.935l.021.021A12.665,12.665,0,0,1,38.948,10.7ZM147.441,24.875v.064c-.727,4.577-4.833,7.549-10.458,7.549a16.2,16.2,0,0,1-5.646-.941,2.339,2.339,0,0,1-1.6.642h-6.544a2.515,2.515,0,0,1-1.412-.449,2.381,2.381,0,0,0,1.412.47h6.544a2.339,2.339,0,0,0,1.6-.642,16.2,16.2,0,0,0,5.646.941c5.625,0,9.731-2.973,10.458-7.549v-.086a7.255,7.255,0,0,0,.086-1.176,7.433,7.433,0,0,1-.086,1.176Z" transform="translate(-6.219 -6.761)" fill="none"/>
    <path id="Path_170" data-name="Path 170" d="M54.809,52.5h-2.4L51.9,55.708h2.374v.021c1.3,0,2.2-.577,2.374-1.6v-.043C56.819,53.035,56.07,52.5,54.809,52.5Z" transform="translate(-40.129 -41.272)" fill="#1a1a1a"/>
    <path id="Path_171" data-name="Path 171" d="M129.812,31.717a2.339,2.339,0,0,0,1.6-.642,16.2,16.2,0,0,0,5.646.941c5.625,0,9.731-2.973,10.458-7.549V24.4a7.436,7.436,0,0,0,.086-1.176,5.66,5.66,0,0,0-1.839-4.213v-.021l2.267-2.566a2.277,2.277,0,0,0,.577-1.454,2.352,2.352,0,0,0-.77-1.818c-2.139-1.925-4.962-2.866-8.64-2.866a12.237,12.237,0,0,0-5.175,1.069,2.3,2.3,0,0,0-1.732-.77h-6.437a2.39,2.39,0,0,0-.941.192,2.359,2.359,0,0,0-.749.556l-.727.791v-.021l-.043.043a2.5,2.5,0,0,0-.428-.727,2.349,2.349,0,0,0-1.8-.834h-5.5a2.472,2.472,0,0,0-.791.15,2,2,0,0,0-.791-.15H100.085a2.472,2.472,0,0,0-.791.15,2,2,0,0,0-.791-.15H84.494a2.46,2.46,0,0,0-.877.171,2.32,2.32,0,0,0-1.326,1.433l-.021-.021c0,.021,0,.021-.021.043a11.527,11.527,0,0,0-6.715-1.989,13.4,13.4,0,0,0-5.988,1.411,12.687,12.687,0,0,0-6.608,8.576v-.192a.633.633,0,0,0-.043.214A24.532,24.532,0,0,0,60.713,9.369a2.437,2.437,0,0,0-1.369-1.24A2.327,2.327,0,0,0,58.574,8a2.2,2.2,0,0,0-.749.128,1.308,1.308,0,0,0-.257.107l-4.662,2.331a2.525,2.525,0,0,0-.813.684,2.578,2.578,0,0,0-.984.257l-4.341,2.246-.021-.021-.021.021a8.692,8.692,0,0,0-2.032-1.925,9.818,9.818,0,0,0-5.667-1.6,12.628,12.628,0,0,0-9.111,3.956l-.021-.021-.021.021a5.951,5.951,0,0,0-.62-.877c-1.518-1.8-4.021-2.716-7.421-2.716h-8.02a2.364,2.364,0,0,0-2.331,1.989L8.894,29a2.371,2.371,0,0,0,.535,1.9,1.476,1.476,0,0,0,.385.342,2.366,2.366,0,0,0,1.39.47h5.5a2.368,2.368,0,0,0,2.139-1.369l.021.021.043.064a2.43,2.43,0,0,0,1.133,1.091,2.315,2.315,0,0,0,.941.192h6.352a2.278,2.278,0,0,0,1.946-1.112,2.3,2.3,0,0,0,.3-.834c.021.021.043.021.043.043a.079.079,0,0,1,.021-.064,9.933,9.933,0,0,0,6.523,2.331,12.765,12.765,0,0,0,4.3-.706A12.064,12.064,0,0,0,45.1,28.338l.021.021.043-.043L49.613,30.9a1.9,1.9,0,0,0,.727.278,1.963,1.963,0,0,0,.6.513l4.427,2.588a2.318,2.318,0,0,0,1.176.321,2,2,0,0,0,.791-.15,2.4,2.4,0,0,0,1.112-.9,28.513,28.513,0,0,0,4.192-10.714,1.412,1.412,0,0,0,.021.3,1.651,1.651,0,0,0,.043-.321,9.094,9.094,0,0,0,2.139,5.817,10.511,10.511,0,0,0,8.191,3.443,15.572,15.572,0,0,0,5.582-1.048,11.653,11.653,0,0,0,1.176-.535c.021,0,.043-.021.064-.021a1.835,1.835,0,0,0,.278.428,2.349,2.349,0,0,0,1.8.834H96.064a2.082,2.082,0,0,0,.727-.128,2.2,2.2,0,0,0,.749.128h14.136a2.082,2.082,0,0,0,.727-.128,2.2,2.2,0,0,0,.749.128h5.5a2,2,0,0,0,.727-.128,2.367,2.367,0,0,0,1.5-1.647l.043.086c0-.043.021-.064.021-.107l.192.428a2.3,2.3,0,0,0,2.139,1.347h6.544Zm-101.478-13v.043a6.506,6.506,0,0,1-4.042,5.026l2.951,5.582H20.977l-2.352-4.7H17.448l-.749,4.7H11.2L13.813,12.94h8.02c2.909,0,4.641.727,5.625,1.882A4.485,4.485,0,0,1,28.334,18.714Zm12.468.791a2.617,2.617,0,0,0-2.673-1.989,3.952,3.952,0,0,0-3.636,3.593v.043c-.342,2.139.684,3.636,2.5,3.636a4.11,4.11,0,0,0,3.422-2.074l4.128,2.566a10,10,0,0,1-8.469,4.448c-4.534,0-7.956-3.443-7.164-8.533v-.043a10.315,10.315,0,0,1,10.094-8.576c3.614,0,5.774,1.754,6.758,4.277L40.8,19.506Zm9.838,9.346-4.577-2.673a11.614,11.614,0,0,0,1.968-5.5,9.661,9.661,0,0,0-.706-4.662l4.726-2.438a14.83,14.83,0,0,1,1.283,7.571A16.958,16.958,0,0,1,50.64,28.851Zm9.752-7.7a25.258,25.258,0,0,1-4,11.078l-4.427-2.588a18.343,18.343,0,0,0,3.122-8.875,16.317,16.317,0,0,0-1.283-8.105l4.662-2.331a21.9,21.9,0,0,1,1.925,10.821Zm78.787-8.533c3.165,0,5.389.749,7.057,2.246l-3.272,3.7a7.474,7.474,0,0,0-4.684-1.625c-.813,0-1.24.278-1.3.684v.043c-.064.449.321.727,2.01,1.048,4.085.77,6.715,1.989,6.181,5.3v.043c-.556,3.443-3.721,5.56-8.127,5.56-3.315.043-6.159-.9-7.977-2.716l3.507-3.507a8.16,8.16,0,0,0,5.454,1.925c.984,0,1.454-.257,1.518-.706v-.043c.064-.47-.406-.727-2.117-1.091-3.572-.749-6.63-1.818-6.1-5.282v-.043C131.822,15.036,134.645,12.619,139.179,12.619ZM73.93,25.152a4.036,4.036,0,0,0,1.946-.385l.257-1.647H73.309l.556-3.529h7.956l-1.176,7.656a13.08,13.08,0,0,1-7.656,2.459c-5.111.021-8.683-3.422-7.87-8.512v-.043a10.451,10.451,0,0,1,10.415-8.576,8.778,8.778,0,0,1,6.48,2.481l-3.657,3.7a4.716,4.716,0,0,0-3.422-1.433,4.441,4.441,0,0,0-4.3,3.871v.043A3.132,3.132,0,0,0,73.93,25.152Zm23.033-6.031-.62,3.978h-8.02l-.278,1.775H96.77l-.706,4.512H81.928L84.516,12.94H98.524l-.706,4.512H89.2l-.257,1.668h8.02ZM111.954,23.1h-8.02l-.278,1.775h8.726l-.706,4.512H97.54l2.588-16.446h14.008l-.706,4.512h-8.619l-.257,1.668h8.02Zm8.918,1.069-1.69,1.711-.556,3.507h-5.5L115.74,12.94h5.5l-.984,6.159L125.9,12.94h6.394l-6.865,7.143,4.384,9.3h-6.544l-2.4-5.218Z" transform="translate(-6.298 -6.289)" fill="#1a1a1a"/>
    <path id="Path_172" data-name="Path 172" d="M30.429,29.764h-8.02L19.8,46.188h5.5l.749-4.7h1.176l2.352,4.7H35.84l-2.951-5.582a6.506,6.506,0,0,0,4.042-5.026v-.043a4.485,4.485,0,0,0-.877-3.892C35.07,30.491,33.338,29.764,30.429,29.764Zm.984,6.159v.043c-.171,1.027-1.069,1.6-2.374,1.6v-.021H26.665l.513-3.208h2.4C30.835,34.34,31.584,34.875,31.413,35.923ZM47.6,29.4a10.315,10.315,0,0,0-10.094,8.576v.043c-.791,5.09,2.631,8.533,7.164,8.533A10,10,0,0,0,53.141,42.1l-4.128-2.566a4.11,4.11,0,0,1-3.422,2.074c-1.818,0-2.844-1.5-2.5-3.636v-.043a3.952,3.952,0,0,1,3.636-3.593A2.617,2.617,0,0,1,49.4,36.329l4.962-2.652C53.376,31.154,51.216,29.4,47.6,29.4Zm31.63,8.619a4.441,4.441,0,0,1,4.3-3.871,4.716,4.716,0,0,1,3.422,1.433l3.657-3.7A8.778,8.778,0,0,0,84.13,29.4a10.451,10.451,0,0,0-10.415,8.576v.043c-.813,5.09,2.759,8.533,7.87,8.512a13.08,13.08,0,0,0,7.656-2.459l1.176-7.656H82.462l-.556,3.529h2.823l-.257,1.647a4.036,4.036,0,0,1-1.946.385,3.132,3.132,0,0,1-3.293-3.914v-.043Zm27.182-3.743.706-4.512H93.112L90.524,46.209h14.136l.706-4.512H96.641l.278-1.775h8.02l.62-3.978h-8.02l.257-1.668Zm6.993,0h8.619l.706-4.512H108.724l-2.588,16.446h14.136l.706-4.512h-8.726l.278-1.775h8.02l.62-3.978h-8.02Zm25,11.933-4.384-9.3,6.865-7.143h-6.395l-5.646,6.159.984-6.159h-5.5l-2.609,16.446h5.5l.556-3.507,1.69-1.711,2.4,5.218Z" transform="translate(-14.894 -23.112)" fill="#fff"/>
    <path id="Path_173" data-name="Path 173" d="M573.167,35.182c-.535,3.465,2.524,4.534,6.1,5.282,1.711.364,2.181.62,2.117,1.091V41.6c-.064.449-.535.706-1.518.706a8.16,8.16,0,0,1-5.454-1.925L570.9,43.886c1.818,1.818,4.662,2.759,7.977,2.716,4.406,0,7.571-2.117,8.127-5.56V41c.535-3.315-2.1-4.534-6.181-5.3-1.689-.321-2.074-.6-2.01-1.048V34.6c.064-.406.492-.684,1.3-.684a7.474,7.474,0,0,1,4.684,1.625l3.272-3.7c-1.668-1.5-3.892-2.246-7.057-2.246-4.534,0-7.357,2.417-7.849,5.539Z" transform="translate(-448.134 -23.27)" fill="#fff"/>
    <path id="Path_174" data-name="Path 174" d="M212.239,21.231a16.317,16.317,0,0,1,1.283,8.105,18.342,18.342,0,0,1-3.122,8.875l4.427,2.588a25.258,25.258,0,0,0,4-11.078A21.9,21.9,0,0,0,216.9,18.9Z" transform="translate(-164.732 -14.858)" fill="#0d72b9"/>
    <path id="Path_175" data-name="Path 175" d="M188.788,34.1l-4.726,2.438a9.661,9.661,0,0,1,.706,4.662,11.614,11.614,0,0,1-1.968,5.5l4.577,2.673a16.958,16.958,0,0,0,2.695-7.7A14.83,14.83,0,0,0,188.788,34.1Z" transform="translate(-143.034 -26.807)" fill="#0d72b9"/>
    <path id="Path_176" data-name="Path 176" d="M143,11.27a4.086,4.086,0,0,0-.321-5.689c-2.459-2.224-5.667-3.293-9.795-3.293a14.053,14.053,0,0,0-4.919.834,4,4,0,0,0-1.989-.513h-6.395a3.983,3.983,0,0,0-2.331.749,4.14,4.14,0,0,0-2.331-.749h-5.5a3.207,3.207,0,0,0-.791.086,4.973,4.973,0,0,0-.791-.086H93.83a3.207,3.207,0,0,0-.791.086,4.973,4.973,0,0,0-.791-.086H78.239A3.958,3.958,0,0,0,75.5,3.678a13.869,13.869,0,0,0-6.223-1.411,14.911,14.911,0,0,0-9.453,3.379,13.732,13.732,0,0,0-2.074,2.1A26.344,26.344,0,0,0,56,2.417,4,4,0,0,0,53.645.278,3.407,3.407,0,0,0,52.276,0a4.128,4.128,0,0,0-1.818.428L45.8,2.759a4.231,4.231,0,0,0-.877.6,4.956,4.956,0,0,0-.941.342L40.835,5.325a10.162,10.162,0,0,0-1.476-1.219,11.575,11.575,0,0,0-6.651-1.882A14.282,14.282,0,0,0,23.79,5.389c-1.861-1.861-4.641-2.8-8.255-2.8H7.515A4.05,4.05,0,0,0,3.494,6.01L.907,22.434a4.032,4.032,0,0,0,.92,3.272,4.086,4.086,0,0,0,3.08,1.433h5.5a4.132,4.132,0,0,0,2.139-.6,4.076,4.076,0,0,0,2.139.6h6.266a4.152,4.152,0,0,0,2.887-1.2A11.991,11.991,0,0,0,29.8,27.5a13.783,13.783,0,0,0,9.26-3.358L42.4,26.091a3.546,3.546,0,0,0,.706.321,3.443,3.443,0,0,0,.642.449l4.427,2.588A4.052,4.052,0,0,0,50.223,30a3.989,3.989,0,0,0,3.4-1.861A31.226,31.226,0,0,0,56.511,22.5a9.811,9.811,0,0,0,.706.941,12.182,12.182,0,0,0,9.5,4.042,17.244,17.244,0,0,0,6.373-1.24,3.98,3.98,0,0,0,2.524.877H89.745a4,4,0,0,0,.727-.064,4.24,4.24,0,0,0,.749.064h14.136a4,4,0,0,0,.727-.064,4.24,4.24,0,0,0,.749.064h5.5a3.953,3.953,0,0,0,2.31-.727,4.164,4.164,0,0,0,2.31.727h6.544a4.07,4.07,0,0,0,1.882-.449,18.136,18.136,0,0,0,5.389.77,13.57,13.57,0,0,0,8.063-2.374,9.888,9.888,0,0,0,4.085-6.608v-.064a7.6,7.6,0,0,0-1.176-5.689L143,11.27Zm-1.775,6.865V18.2c-.727,4.577-4.833,7.549-10.458,7.549a16.2,16.2,0,0,1-5.646-.941,2.339,2.339,0,0,1-1.6.642H116.97a2.381,2.381,0,0,1-1.411-.47,2.5,2.5,0,0,1-.727-.9l-.192-.428c0,.043-.021.064-.021.107a2.345,2.345,0,0,1-1.518,1.583,2.082,2.082,0,0,1-.727.128h-5.5a2.2,2.2,0,0,1-.749-.128,2.083,2.083,0,0,1-.727.128H91.264a2.2,2.2,0,0,1-.749-.128,2.082,2.082,0,0,1-.727.128H75.652a2.349,2.349,0,0,1-1.8-.834,1.834,1.834,0,0,1-.278-.428c-.021,0-.043.021-.064.021-.385.192-.791.364-1.176.513a15.572,15.572,0,0,1-5.582,1.048,10.511,10.511,0,0,1-8.191-3.443,9.094,9.094,0,0,1-2.139-5.817,1.65,1.65,0,0,0-.043.321,27.935,27.935,0,0,1-4.149,10.394,2.24,2.24,0,0,1-1.176.92,2.472,2.472,0,0,1-.791.15,2.318,2.318,0,0,1-1.176-.321l-4.427-2.588a1.963,1.963,0,0,1-.6-.513,1.9,1.9,0,0,1-.727-.278l-4.47-2.588-.043.043a11.841,11.841,0,0,1-4.662,3.015,12.765,12.765,0,0,1-4.3.706,9.933,9.933,0,0,1-6.523-2.331.079.079,0,0,1-.021.064,2.369,2.369,0,0,1-.278.77,2.3,2.3,0,0,1-1.155.962,2.347,2.347,0,0,1-.855.171H14.679a2.39,2.39,0,0,1-.941-.192,2.25,2.25,0,0,1-1.155-1.112l-.021-.043-.021-.021A2.368,2.368,0,0,1,10.4,25.428h-5.5a2.366,2.366,0,0,1-1.39-.47,3.287,3.287,0,0,1-.406-.364,2.349,2.349,0,0,1-.535-1.9L5.184,6.245A2.366,2.366,0,0,1,7.515,4.3h8.02c3.4,0,5.9.92,7.421,2.716a5.951,5.951,0,0,1,.62.877L23.6,7.87a12.618,12.618,0,0,1,9.111-3.935h.021a9.865,9.865,0,0,1,5.667,1.6,8.692,8.692,0,0,1,2.032,1.925l.021-.021,4.32-2.224a2.321,2.321,0,0,1,.984-.257,2.525,2.525,0,0,1,.813-.684l4.662-2.331a1.237,1.237,0,0,1,.3-.107,2.2,2.2,0,0,1,.749-.128,2.327,2.327,0,0,1,.77.128,2.437,2.437,0,0,1,1.369,1.24A24.532,24.532,0,0,1,56.6,13.944c.021-.064.021-.128.043-.214a12.276,12.276,0,0,1,4.234-6.822,12.932,12.932,0,0,1,8.362-2.973,11.527,11.527,0,0,1,6.715,1.989c0-.021,0-.021.021-.043A2.244,2.244,0,0,1,77.341,4.47a2.372,2.372,0,0,1,.877-.171H92.2a2,2,0,0,1,.791.15,2.472,2.472,0,0,1,.791-.15H107.8a2,2,0,0,1,.791.15,2.472,2.472,0,0,1,.791-.15h5.5a2.349,2.349,0,0,1,1.8.834,2.5,2.5,0,0,1,.428.727l.043-.043.684-.749a2.287,2.287,0,0,1,.791-.577,2.39,2.39,0,0,1,.941-.192H126a2.3,2.3,0,0,1,1.732.77A12.237,12.237,0,0,1,132.9,4c3.678,0,6.5.941,8.64,2.866a2.322,2.322,0,0,1,.77,1.818,2.407,2.407,0,0,1-.577,1.476L139.468,12.7v.021a5.509,5.509,0,0,1,1.839,4.213,7.7,7.7,0,0,1-.086,1.2Z" fill="#fff"/>
  </g>
</svg>
